<svg t="1692849590695" class="icon" viewBox="0 0 1024 1024" version="1.1" xmlns="http://www.w3.org/2000/svg" p-id="3996" width="200" height="200"><path d="M559.0016 44.99456q86.3232 8.66304 163.84 47.65696t136.17152 103.34208q57.67168 63.32416 89.66144 143.6672 32.6656 83.00544 32.6656 172.3392 0 95.66208-37.00736 182.66112-34.32448 82.3296-100.33152 149.34016-66.99008 66.00704-149.34016 100.33152-86.99904 37.00736-182.66112 37.00736-89.33376 0-172.3392-32.6656-80.34304-32.01024-143.6672-89.66144-64.32768-58.6752-103.34208-136.17152t-47.65696-163.84q-1.65888-19.00544 10.83392-32.99328t31.82592-14.00832q16.34304 0 28.50816 10.99776t13.824 27.3408q7.00416 71.00416 38.83008 134.32832t84.82816 111.32928q51.67104 47.65696 117.32992 73.33888 67.9936 26.66496 141.0048 26.66496 78.336 0 149.34016-30.0032 67.33824-28.32384 122.32704-82.3296 54.00576-55.00928 82.3296-122.32704 30.0032-71.00416 30.0032-149.34016 0-72.99072-26.66496-141.0048-25.66144-65.65888-73.33888-117.32992-48.00512-53.00224-111.32928-84.82816t-134.32832-38.83008q-16.34304-1.65888-27.3408-13.824t-10.99776-28.50816q0-12.67712 4.83328-21.66784t12.84096-13.33248 15.17568-6.00064 14.17216-1.65888zM85.34016 42.65984l256 0q17.67424 0 30.16704 12.4928t12.4928 30.16704-12.4928 30.16704-30.16704 12.4928l-153.00608 0 353.9968 353.9968q12.32896 12.00128 12.32896 30.0032 0 18.3296-12.16512 30.49472t-30.49472 12.16512q-18.00192 0-30.33088-12.32896l-353.66912-353.9968 0 153.00608q0 17.67424-12.4928 30.16704t-30.16704 12.4928-30.16704-12.4928-12.4928-30.16704l0-256q0-17.67424 12.4928-30.16704t30.16704-12.4928z" fill="#444444" p-id="3997"></path></svg>